<svg xmlns="http://www.w3.org/2000/svg" xmlns:xlink="http://www.w3.org/1999/xlink" width="111" height="28" role="img" aria-label="NODE-RED">
  <title>NODE-RED</title>
  <g shape-rendering="crispEdges">
    <rect width="111" height="28" fill="#9e3131"/>
  </g>
  <g fill="#fff" text-anchor="middle" font-family="Verdana,Geneva,DejaVu Sans,sans-serif" text-rendering="geometricPrecision" font-size="100">

    <g transform="scale(0.031) translate(280, 210)">
      <g transform="translate(0.000000,480.000000) scale(0.1,-0.100000)"
      fill="#fff" stroke="none">
        <path d="M615 4630 c-215 -43 -381 -202 -435 -416 -20 -78 -20 -109 -18 -1839
        l3 -1760 22 -66 c58 -169 200 -309 368 -362 l70 -22 1775 0 1775 0 70 22 c171
        54 314 197 368 368 l22 70 0 1775 0 1775 -23 72 c-41 133 -151 266 -267 325
        -21 11 -64 30 -95 42 l-55 21 -1770 1 c-974 1 -1788 -2 -1810 -6z m2886 -1418
        c39 -20 62 -41 84 -77 l30 -48 0 -167 0 -167 -30 -48 c-22 -36 -45 -57 -84
        -77 l-53 -28 -477 0 c-440 0 -479 2 -516 19 -70 32 -125 114 -125 187 l0 37
        -46 -7 c-127 -17 -172 -50 -250 -182 -30 -52 -70 -114 -88 -138 l-34 -43 112
        -27 c192 -47 290 -103 549 -313 138 -111 273 -159 478 -170 l116 -6 5 47 c8
        71 53 135 117 168 l53 28 472 0 c523 0 514 1 583 -68 55 -55 65 -99 61 -269
        -3 -146 -4 -151 -33 -198 -22 -36 -45 -57 -84 -77 l-53 -28 -472 0 -472 0 -51
        25 c-76 38 -123 111 -123 190 l0 32 -97 7 c-54 4 -142 16 -196 27 -185 37
        -300 97 -484 251 -64 53 -144 113 -177 132 -109 65 -276 106 -492 120 l-92 7
        -3 -80 c-4 -70 -8 -84 -35 -123 -19 -26 -53 -54 -84 -71 l-52 -27 -473 0 -473
        0 -53 28 c-39 20 -62 41 -84 77 -29 47 -30 51 -33 199 -2 94 1 165 8 189 15
        51 84 119 136 135 30 9 167 12 505 12 l464 0 51 -24 c56 -26 95 -70 114 -129
        12 -38 13 -39 49 -32 52 10 127 53 154 89 13 17 50 76 82 130 64 110 135 189
        193 213 54 23 132 43 169 43 50 0 63 9 63 44 0 82 48 158 122 195 42 20 55 21
        519 21 l477 0 53 -28z"/>
        <path d="M2496 3069 c-26 -20 -26 -22 -26 -147 0 -70 4 -132 8 -138 21 -32 53
        -34 501 -34 438 0 452 1 471 20 18 18 20 33 20 150 0 120 -2 131 -22 150 -21
        20 -33 20 -474 20 -441 0 -452 0 -478 -21z"/>
        <path d="M515 2525 c-24 -23 -25 -29 -25 -153 0 -190 -52 -172 496 -172 l451
        0 21 23 c20 21 22 34 22 151 0 121 -1 128 -25 151 l-24 25 -446 0 -446 0 -24
        -25z"/>
        <path d="M3340 2030 c-18 -18 -20 -33 -20 -148 0 -190 -52 -172 492 -172 548
      0 498 -17 498 169 0 189 53 171 -498 171 -439 0 -453 -1 -472 -20z"/>
      </g>
    </g>

    <text transform="scale(.1)" x="655" y="175" textLength="670" fill="#fff" font-weight="bold">NODE-RED</text>
  </g>
</svg>
